<svg width="187" height="77" viewBox="0 0 187 77" fill="none" xmlns="http://www.w3.org/2000/svg">
<path d="M34.5469 58.2031H35.2305L52.5156 4.29688H68.7266L44.3125 75H25.4648L0.953125 4.29688H17.3594L34.5469 58.2031ZM76.4414 21.9727H90.8945V75H76.4414V21.9727ZM83.668 15.0391C82.2357 15.0391 80.901 14.7135 79.6641 14.0625C78.4596 13.3789 77.4993 12.4837 76.7832 11.377C76.0996 10.2376 75.7578 9.01693 75.7578 7.71484C75.7578 6.38021 76.0996 5.14323 76.7832 4.00391C77.4993 2.86458 78.4596 1.9694 79.6641 1.31836C80.901 0.634766 82.2357 0.292969 83.668 0.292969C85.0677 0.292969 86.3698 0.634766 87.5742 1.31836C88.7786 1.9694 89.7227 2.86458 90.4062 4.00391C91.1224 5.14323 91.4805 6.38021 91.4805 7.71484C91.4805 9.01693 91.1224 10.2376 90.4062 11.377C89.7227 12.4837 88.7786 13.3789 87.5742 14.0625C86.3698 14.7135 85.0677 15.0391 83.668 15.0391ZM130.055 32.8125H120.094V58.6914C120.094 60.6445 120.517 62.0117 121.363 62.793C122.21 63.5742 123.447 63.9974 125.074 64.0625C127.158 64.0625 129.078 63.9648 130.836 63.7695V75.1953C129.111 75.5208 126.539 75.6836 123.121 75.6836C117.685 75.6836 113.404 74.4303 110.279 71.9238C107.154 69.4173 105.608 65.6901 105.641 60.7422V32.8125H98.3164V21.9727H105.641V9.27734H120.094V21.9727H130.055V32.8125ZM162.574 76.0742C157.203 76.0742 152.548 74.9674 148.609 72.7539C144.703 70.5404 141.692 67.3828 139.576 63.2812C137.46 59.1471 136.402 54.2969 136.402 48.7305C136.402 43.2943 137.444 38.5091 139.527 34.375C141.643 30.2083 144.638 26.9857 148.512 24.707C152.385 22.4284 156.878 21.2891 161.988 21.2891C166.741 21.2891 170.989 22.2982 174.732 24.3164C178.508 26.3021 181.471 29.3132 183.619 33.3496C185.8 37.3861 186.891 42.3177 186.891 48.1445V52.2461H150.66C150.66 54.8828 151.148 57.1777 152.125 59.1309C153.134 61.084 154.55 62.5977 156.373 63.6719C158.229 64.7135 160.393 65.2344 162.867 65.2344C165.243 65.2344 167.294 64.7624 169.02 63.8184C170.745 62.8418 171.982 61.5234 172.73 59.8633H186.5C185.816 63.1185 184.417 65.9668 182.301 68.4082C180.185 70.8496 177.434 72.7376 174.049 74.0723C170.696 75.4069 166.871 76.0742 162.574 76.0742ZM173.219 43.1641C173.219 41.0482 172.747 39.1602 171.803 37.5C170.891 35.8073 169.605 34.4889 167.945 33.5449C166.285 32.6009 164.397 32.1289 162.281 32.1289C160.133 32.1289 158.18 32.6172 156.422 33.5938C154.697 34.5703 153.313 35.9049 152.271 37.5977C151.262 39.2904 150.725 41.1458 150.66 43.1641H173.219Z" fill="black"/>
</svg>
